<svg width="42" height="42" viewBox="0 0 42 42" fill="none" xmlns="http://www.w3.org/2000/svg">
<g clip-path="url(#clip0_3_199)">
<path d="M39.9006 4.19836C38.7412 4.19836 37.8014 3.25852 37.8014 2.09918C37.8014 0.939834 38.7412 0 39.9006 0C41.0599 0 41.9998 0.939834 41.9998 2.09918C41.9998 3.25852 41.0599 4.19836 39.9006 4.19836Z" fill="black"/>
<path d="M33.6667 10.5594C32.5074 10.5594 31.5675 9.61961 31.5675 8.46026C31.5675 7.30092 32.5074 6.36108 33.6667 6.36108C34.826 6.36108 35.7659 7.30092 35.7659 8.46026C35.7659 9.61961 34.826 10.5594 33.6667 10.5594Z" fill="black"/>
<path d="M33.6667 4.19836C32.5074 4.19836 31.5675 3.25852 31.5675 2.09918C31.5675 0.939834 32.5074 0 33.6667 0C34.826 0 35.7659 0.939834 35.7659 2.09918C35.7659 3.25852 34.826 4.19836 33.6667 4.19836Z" fill="black"/>
<path d="M27.3053 10.5594C26.146 10.5594 25.2061 9.61961 25.2061 8.46026C25.2061 7.30092 26.146 6.36108 27.3053 6.36108C28.4647 6.36108 29.4045 7.30092 29.4045 8.46026C29.4045 9.61961 28.4647 10.5594 27.3053 10.5594Z" fill="black"/>
<path d="M27.3053 16.7934C26.146 16.7934 25.2061 15.8536 25.2061 14.6943C25.2061 13.5349 26.146 12.5951 27.3053 12.5951C28.4647 12.5951 29.4045 13.5349 29.4045 14.6943C29.4045 15.8536 28.4647 16.7934 27.3053 16.7934Z" fill="black"/>
<path d="M27.3053 4.19836C26.146 4.19836 25.2061 3.25852 25.2061 2.09918C25.2061 0.939834 26.146 0 27.3053 0C28.4647 0 29.4045 0.939834 29.4045 2.09918C29.4045 3.25852 28.4647 4.19836 27.3053 4.19836Z" fill="black"/>
<path d="M21.0713 10.5594C19.912 10.5594 18.9722 9.61961 18.9722 8.46026C18.9722 7.30092 19.912 6.36108 21.0713 6.36108C22.2307 6.36108 23.1705 7.30092 23.1705 8.46026C23.1705 9.61961 22.2307 10.5594 21.0713 10.5594Z" fill="black"/>
<path d="M21.0713 16.7934C19.912 16.7934 18.9722 15.8536 18.9722 14.6943C18.9722 13.5349 19.912 12.5951 21.0713 12.5951C22.2307 12.5951 23.1705 13.5349 23.1705 14.6943C23.1705 15.8536 22.2307 16.7934 21.0713 16.7934Z" fill="black"/>
<path d="M21.0713 4.19836C19.912 4.19836 18.9722 3.25852 18.9722 2.09918C18.9722 0.939834 19.912 0 21.0713 0C22.2307 0 23.1705 0.939834 23.1705 2.09918C23.1705 3.25852 22.2307 4.19836 21.0713 4.19836Z" fill="black"/>
<path d="M14.8374 10.5594C13.678 10.5594 12.7382 9.61961 12.7382 8.46026C12.7382 7.30092 13.678 6.36108 14.8374 6.36108C15.9967 6.36108 16.9365 7.30092 16.9365 8.46026C16.9365 9.61961 15.9967 10.5594 14.8374 10.5594Z" fill="black"/>
<path d="M14.8374 16.7934C13.678 16.7934 12.7382 15.8536 12.7382 14.6943C12.7382 13.5349 13.678 12.5951 14.8374 12.5951C15.9967 12.5951 16.9365 13.5349 16.9365 14.6943C16.9365 15.8536 15.9967 16.7934 14.8374 16.7934Z" fill="black"/>
<path d="M21.0713 23.0276C19.912 23.0276 18.9722 22.0877 18.9722 20.9284C18.9722 19.769 19.912 18.8292 21.0713 18.8292C22.2307 18.8292 23.1705 19.769 23.1705 20.9284C23.1705 22.0877 22.2307 23.0276 21.0713 23.0276Z" fill="black"/>
<path d="M14.8374 23.0276C13.678 23.0276 12.7382 22.0877 12.7382 20.9284C12.7382 19.769 13.678 18.8292 14.8374 18.8292C15.9967 18.8292 16.9365 19.769 16.9365 20.9284C16.9365 22.0877 15.9967 23.0276 14.8374 23.0276Z" fill="black"/>
<path d="M27.3053 29.3886C26.1459 29.3886 25.206 28.4487 25.206 27.2893C25.206 26.1299 26.1459 25.19 27.3053 25.19C28.4647 25.19 29.4046 26.1299 29.4046 27.2893C29.4046 28.4487 28.4647 29.3886 27.3053 29.3886Z" fill="black"/>
<path d="M21.0713 29.3886C19.9119 29.3886 18.972 28.4487 18.972 27.2893C18.972 26.1299 19.9119 25.19 21.0713 25.19C22.2308 25.19 23.1707 26.1299 23.1707 27.2893C23.1707 28.4487 22.2308 29.3886 21.0713 29.3886Z" fill="black"/>
<path d="M14.8374 29.3886C13.6779 29.3886 12.738 28.4487 12.738 27.2893C12.738 26.1299 13.6779 25.19 14.8374 25.19C15.9968 25.19 16.9367 26.1299 16.9367 27.2893C16.9367 28.4487 15.9968 29.3886 14.8374 29.3886Z" fill="black"/>
<path d="M33.6667 35.6304C32.5074 35.6304 31.5675 34.6906 31.5675 33.5312C31.5675 32.3719 32.5074 31.4321 33.6667 31.4321C34.826 31.4321 35.7659 32.3719 35.7659 33.5312C35.7659 34.6906 34.826 35.6304 33.6667 35.6304Z" fill="black"/>
<path d="M27.3053 35.6304C26.146 35.6304 25.2061 34.6906 25.2061 33.5312C25.2061 32.3719 26.146 31.4321 27.3053 31.4321C28.4647 31.4321 29.4045 32.3719 29.4045 33.5312C29.4045 34.6906 28.4647 35.6304 27.3053 35.6304Z" fill="black"/>
<path d="M21.0713 35.6304C19.912 35.6304 18.9722 34.6906 18.9722 33.5312C18.9722 32.3719 19.912 31.4321 21.0713 31.4321C22.2307 31.4321 23.1705 32.3719 23.1705 33.5312C23.1705 34.6906 22.2307 35.6304 21.0713 35.6304Z" fill="black"/>
<path d="M14.8374 35.6304C13.678 35.6304 12.7382 34.6906 12.7382 33.5312C12.7382 32.3719 13.678 31.4321 14.8374 31.4321C15.9967 31.4321 16.9365 32.3719 16.9365 33.5312C16.9365 34.6906 15.9967 35.6304 14.8374 35.6304Z" fill="black"/>
<path d="M8.34095 16.7934C7.1816 16.7934 6.24177 15.8536 6.24177 14.6943C6.24177 13.5349 7.1816 12.5951 8.34095 12.5951C9.50029 12.5951 10.4401 13.5349 10.4401 14.6943C10.4401 15.8536 9.50029 16.7934 8.34095 16.7934Z" fill="black"/>
<path d="M8.34095 23.0276C7.1816 23.0276 6.24177 22.0877 6.24177 20.9284C6.24177 19.769 7.1816 18.8292 8.34095 18.8292C9.50029 18.8292 10.4401 19.769 10.4401 20.9284C10.4401 22.0877 9.50029 23.0276 8.34095 23.0276Z" fill="black"/>
<path d="M8.34095 29.3886C7.18153 29.3886 6.24163 28.4487 6.24163 27.2893C6.24163 26.1299 7.18153 25.19 8.34095 25.19C9.50037 25.19 10.4403 26.1299 10.4403 27.2893C10.4403 28.4487 9.50037 29.3886 8.34095 29.3886Z" fill="black"/>
<path d="M39.9007 42.127C38.7413 42.127 37.8014 41.1871 37.8014 40.0277C37.8014 38.8682 38.7413 37.9283 39.9007 37.9283C41.0601 37.9283 42 38.8682 42 40.0277C42 41.1871 41.0601 42.127 39.9007 42.127Z" fill="black"/>
<path d="M33.6667 42.127C32.5073 42.127 31.5674 41.1871 31.5674 40.0277C31.5674 38.8682 32.5073 37.9283 33.6667 37.9283C34.8261 37.9283 35.766 38.8682 35.766 40.0277C35.766 41.1871 34.8261 42.127 33.6667 42.127Z" fill="black"/>
<path d="M27.3053 42.127C26.1459 42.127 25.206 41.1871 25.206 40.0277C25.206 38.8682 26.1459 37.9283 27.3053 37.9283C28.4647 37.9283 29.4046 38.8682 29.4046 40.0277C29.4046 41.1871 28.4647 42.127 27.3053 42.127Z" fill="black"/>
<path d="M21.0713 42.127C19.9119 42.127 18.972 41.1871 18.972 40.0277C18.972 38.8682 19.9119 37.9283 21.0713 37.9283C22.2308 37.9283 23.1707 38.8682 23.1707 40.0277C23.1707 41.1871 22.2308 42.127 21.0713 42.127Z" fill="black"/>
<path d="M2.09918 23.0276C0.939831 23.0276 -1.43051e-06 22.0877 -1.43051e-06 20.9284C-1.43051e-06 19.769 0.939831 18.8292 2.09918 18.8292C3.25852 18.8292 4.19836 19.769 4.19836 20.9284C4.19836 22.0877 3.25852 23.0276 2.09918 23.0276Z" fill="black"/>
</g>
<defs>
<clipPath id="clip0_3_199">
<rect width="42" height="42" fill="white" transform="matrix(-1 0 0 1 42 0)"/>
</clipPath>
</defs>
</svg>
