<svg width="42" height="42" viewBox="0 0 42 42" fill="none" xmlns="http://www.w3.org/2000/svg">
<g clip-path="url(#clip0_3_150)">
<path d="M2.09942 4.19836C3.25876 4.19836 4.1986 3.25852 4.1986 2.09918C4.1986 0.939834 3.25876 0 2.09942 0C0.940073 0 0.000238419 0.939834 0.000238419 2.09918C0.000238419 3.25852 0.940073 4.19836 2.09942 4.19836Z" fill="black"/>
<path d="M8.3333 10.5594C9.49265 10.5594 10.4325 9.61961 10.4325 8.46026C10.4325 7.30092 9.49265 6.36108 8.3333 6.36108C7.17396 6.36108 6.23412 7.30092 6.23412 8.46026C6.23412 9.61961 7.17396 10.5594 8.3333 10.5594Z" fill="black"/>
<path d="M8.3333 4.19836C9.49265 4.19836 10.4325 3.25852 10.4325 2.09918C10.4325 0.939834 9.49265 0 8.3333 0C7.17396 0 6.23412 0.939834 6.23412 2.09918C6.23412 3.25852 7.17396 4.19836 8.3333 4.19836Z" fill="black"/>
<path d="M14.6947 10.5594C15.854 10.5594 16.7939 9.61961 16.7939 8.46026C16.7939 7.30092 15.854 6.36108 14.6947 6.36108C13.5353 6.36108 12.5955 7.30092 12.5955 8.46026C12.5955 9.61961 13.5353 10.5594 14.6947 10.5594Z" fill="black"/>
<path d="M14.6947 16.7934C15.854 16.7934 16.7939 15.8536 16.7939 14.6943C16.7939 13.5349 15.854 12.5951 14.6947 12.5951C13.5353 12.5951 12.5955 13.5349 12.5955 14.6943C12.5955 15.8536 13.5353 16.7934 14.6947 16.7934Z" fill="black"/>
<path d="M14.6947 4.19836C15.854 4.19836 16.7939 3.25852 16.7939 2.09918C16.7939 0.939834 15.854 0 14.6947 0C13.5353 0 12.5955 0.939834 12.5955 2.09918C12.5955 3.25852 13.5353 4.19836 14.6947 4.19836Z" fill="black"/>
<path d="M20.9287 10.5594C22.088 10.5594 23.0278 9.61961 23.0278 8.46026C23.0278 7.30092 22.088 6.36108 20.9287 6.36108C19.7693 6.36108 18.8295 7.30092 18.8295 8.46026C18.8295 9.61961 19.7693 10.5594 20.9287 10.5594Z" fill="black"/>
<path d="M20.9287 16.7934C22.088 16.7934 23.0278 15.8536 23.0278 14.6943C23.0278 13.5349 22.088 12.5951 20.9287 12.5951C19.7693 12.5951 18.8295 13.5349 18.8295 14.6943C18.8295 15.8536 19.7693 16.7934 20.9287 16.7934Z" fill="black"/>
<path d="M20.9287 4.19836C22.088 4.19836 23.0278 3.25852 23.0278 2.09918C23.0278 0.939834 22.088 0 20.9287 0C19.7693 0 18.8295 0.939834 18.8295 2.09918C18.8295 3.25852 19.7693 4.19836 20.9287 4.19836Z" fill="black"/>
<path d="M27.1626 10.5594C28.322 10.5594 29.2618 9.61961 29.2618 8.46026C29.2618 7.30092 28.322 6.36108 27.1626 6.36108C26.0033 6.36108 25.0635 7.30092 25.0635 8.46026C25.0635 9.61961 26.0033 10.5594 27.1626 10.5594Z" fill="black"/>
<path d="M27.1626 16.7934C28.322 16.7934 29.2618 15.8536 29.2618 14.6943C29.2618 13.5349 28.322 12.5951 27.1626 12.5951C26.0033 12.5951 25.0635 13.5349 25.0635 14.6943C25.0635 15.8536 26.0033 16.7934 27.1626 16.7934Z" fill="black"/>
<path d="M20.9287 23.0276C22.088 23.0276 23.0278 22.0877 23.0278 20.9284C23.0278 19.769 22.088 18.8292 20.9287 18.8292C19.7693 18.8292 18.8295 19.769 18.8295 20.9284C18.8295 22.0877 19.7693 23.0276 20.9287 23.0276Z" fill="black"/>
<path d="M27.1626 23.0276C28.322 23.0276 29.2618 22.0877 29.2618 20.9284C29.2618 19.769 28.322 18.8292 27.1626 18.8292C26.0033 18.8292 25.0635 19.769 25.0635 20.9284C25.0635 22.0877 26.0033 23.0276 27.1626 23.0276Z" fill="black"/>
<path d="M14.6947 29.3886C15.8541 29.3886 16.794 28.4487 16.794 27.2893C16.794 26.1299 15.8541 25.19 14.6947 25.19C13.5353 25.19 12.5954 26.1299 12.5954 27.2893C12.5954 28.4487 13.5353 29.3886 14.6947 29.3886Z" fill="black"/>
<path d="M20.9287 29.3886C22.0881 29.3886 23.028 28.4487 23.028 27.2893C23.028 26.1299 22.0881 25.19 20.9287 25.19C19.7692 25.19 18.8293 26.1299 18.8293 27.2893C18.8293 28.4487 19.7692 29.3886 20.9287 29.3886Z" fill="black"/>
<path d="M27.1626 29.3886C28.3221 29.3886 29.262 28.4487 29.262 27.2893C29.262 26.1299 28.3221 25.19 27.1626 25.19C26.0032 25.19 25.0633 26.1299 25.0633 27.2893C25.0633 28.4487 26.0032 29.3886 27.1626 29.3886Z" fill="black"/>
<path d="M8.3333 35.6304C9.49265 35.6304 10.4325 34.6906 10.4325 33.5312C10.4325 32.3719 9.49265 31.4321 8.3333 31.4321C7.17396 31.4321 6.23412 32.3719 6.23412 33.5312C6.23412 34.6906 7.17396 35.6304 8.3333 35.6304Z" fill="black"/>
<path d="M14.6947 35.6304C15.854 35.6304 16.7939 34.6906 16.7939 33.5312C16.7939 32.3719 15.854 31.4321 14.6947 31.4321C13.5353 31.4321 12.5955 32.3719 12.5955 33.5312C12.5955 34.6906 13.5353 35.6304 14.6947 35.6304Z" fill="black"/>
<path d="M20.9287 35.6304C22.088 35.6304 23.0278 34.6906 23.0278 33.5312C23.0278 32.3719 22.088 31.4321 20.9287 31.4321C19.7693 31.4321 18.8295 32.3719 18.8295 33.5312C18.8295 34.6906 19.7693 35.6304 20.9287 35.6304Z" fill="black"/>
<path d="M27.1626 35.6304C28.322 35.6304 29.2618 34.6906 29.2618 33.5312C29.2618 32.3719 28.322 31.4321 27.1626 31.4321C26.0033 31.4321 25.0635 32.3719 25.0635 33.5312C25.0635 34.6906 26.0033 35.6304 27.1626 35.6304Z" fill="black"/>
<path d="M33.6591 16.7934C34.8184 16.7934 35.7582 15.8536 35.7582 14.6943C35.7582 13.5349 34.8184 12.5951 33.6591 12.5951C32.4997 12.5951 31.5599 13.5349 31.5599 14.6943C31.5599 15.8536 32.4997 16.7934 33.6591 16.7934Z" fill="black"/>
<path d="M33.6591 23.0276C34.8184 23.0276 35.7582 22.0877 35.7582 20.9284C35.7582 19.769 34.8184 18.8292 33.6591 18.8292C32.4997 18.8292 31.5599 19.769 31.5599 20.9284C31.5599 22.0877 32.4997 23.0276 33.6591 23.0276Z" fill="black"/>
<path d="M33.6591 29.3886C34.8185 29.3886 35.7584 28.4487 35.7584 27.2893C35.7584 26.1299 34.8185 25.19 33.6591 25.19C32.4996 25.19 31.5597 26.1299 31.5597 27.2893C31.5597 28.4487 32.4996 29.3886 33.6591 29.3886Z" fill="black"/>
<path d="M2.09932 42.127C3.25874 42.127 4.19864 41.1871 4.19864 40.0277C4.19864 38.8682 3.25874 37.9283 2.09932 37.9283C0.939898 37.9283 0 38.8682 0 40.0277C0 41.1871 0.939898 42.127 2.09932 42.127Z" fill="black"/>
<path d="M8.3333 42.127C9.49272 42.127 10.4326 41.1871 10.4326 40.0277C10.4326 38.8682 9.49272 37.9283 8.3333 37.9283C7.17388 37.9283 6.23398 38.8682 6.23398 40.0277C6.23398 41.1871 7.17388 42.127 8.3333 42.127Z" fill="black"/>
<path d="M14.6947 42.127C15.8541 42.127 16.794 41.1871 16.794 40.0277C16.794 38.8682 15.8541 37.9283 14.6947 37.9283C13.5353 37.9283 12.5954 38.8682 12.5954 40.0277C12.5954 41.1871 13.5353 42.127 14.6947 42.127Z" fill="black"/>
<path d="M20.9287 42.127C22.0881 42.127 23.028 41.1871 23.028 40.0277C23.028 38.8682 22.0881 37.9283 20.9287 37.9283C19.7692 37.9283 18.8293 38.8682 18.8293 40.0277C18.8293 41.1871 19.7692 42.127 20.9287 42.127Z" fill="black"/>
<path d="M39.9008 23.0276C41.0602 23.0276 42 22.0877 42 20.9284C42 19.769 41.0602 18.8292 39.9008 18.8292C38.7415 18.8292 37.8016 19.769 37.8016 20.9284C37.8016 22.0877 38.7415 23.0276 39.9008 23.0276Z" fill="black"/>
</g>
<defs>
<clipPath id="clip0_3_150">
<rect width="42" height="42" fill="white"/>
</clipPath>
</defs>
</svg>
