<svg width="324" height="58" viewBox="0 0 324 58" fill="none" xmlns="http://www.w3.org/2000/svg">
<g clip-path="url(#clip0_21_11)">
<path d="M16.7185 19.9H21.7095C22.2615 19.9 22.6065 20.153 22.7445 20.659L27.8735 35.333C27.8889 35.379 27.8965 35.4557 27.8965 35.563C27.8965 35.655 27.8429 35.7547 27.7355 35.862C27.6435 35.954 27.5285 36 27.3905 36H23.1355C22.6755 36 22.3765 35.8083 22.2385 35.425L21.6865 33.907H16.7415L16.1895 35.425C16.0515 35.8083 15.7525 36 15.2925 36H11.0375C10.8995 36 10.7769 35.954 10.6695 35.862C10.5775 35.7547 10.5315 35.655 10.5315 35.563C10.5315 35.4557 10.5392 35.379 10.5545 35.333L15.6835 20.659C15.8215 20.153 16.1665 19.9 16.7185 19.9ZM17.9145 29.422H20.5135L19.2025 25.144L17.9145 29.422ZM39.4461 19.9H43.6091C43.7778 19.9 43.9235 19.9613 44.0461 20.084C44.1688 20.2067 44.2301 20.3523 44.2301 20.521V35.379C44.2301 35.5477 44.1688 35.6933 44.0461 35.816C43.9235 35.9387 43.7778 36 43.6091 36H39.9751C39.5765 36 39.2621 35.8237 39.0321 35.471L35.1451 29.606V35.379C35.1451 35.5477 35.0838 35.6933 34.9611 35.816C34.8385 35.9387 34.6928 36 34.5241 36H30.3611C30.1925 36 30.0468 35.9387 29.9241 35.816C29.8015 35.6933 29.7401 35.5477 29.7401 35.379V20.521C29.7401 20.3523 29.8015 20.2067 29.9241 20.084C30.0468 19.9613 30.1925 19.9 30.3611 19.9H33.9951C34.4245 19.9 34.7388 20.0763 34.9381 20.429L38.8251 26.8V20.521C38.8251 20.3523 38.8865 20.2067 39.0091 20.084C39.1318 19.9613 39.2775 19.9 39.4461 19.9ZM52.2517 19.9H57.2427C57.7947 19.9 58.1397 20.153 58.2777 20.659L63.4067 35.333C63.4221 35.379 63.4297 35.4557 63.4297 35.563C63.4297 35.655 63.3761 35.7547 63.2687 35.862C63.1767 35.954 63.0617 36 62.9237 36H58.6687C58.2087 36 57.9097 35.8083 57.7717 35.425L57.2197 33.907H52.2747L51.7227 35.425C51.5847 35.8083 51.2857 36 50.8257 36H46.5707C46.4327 36 46.3101 35.954 46.2027 35.862C46.1107 35.7547 46.0647 35.655 46.0647 35.563C46.0647 35.4557 46.0724 35.379 46.0877 35.333L51.2167 20.659C51.3547 20.153 51.6997 19.9 52.2517 19.9ZM53.4477 29.422H56.0467L54.7357 25.144L53.4477 29.422ZM71.5302 24.96C71.5302 23.396 72.1742 22.1233 73.4622 21.142C74.7656 20.1607 76.4676 19.67 78.5682 19.67C80.6842 19.67 82.4092 20.1837 83.7432 21.211C85.0926 22.2383 85.7672 23.3117 85.7672 24.431C85.7672 24.569 85.7136 24.6917 85.6062 24.799C85.5142 24.891 85.4069 24.937 85.2842 24.937H80.6842C80.3316 24.937 80.0096 24.8067 79.7182 24.546C79.4269 24.2853 79.0359 24.155 78.5452 24.155C77.8092 24.155 77.4412 24.3697 77.4412 24.799C77.4412 25.029 77.6176 25.2207 77.9702 25.374C78.3382 25.5273 79.0129 25.6653 79.9942 25.788C82.2789 26.0793 83.9042 26.616 84.8702 27.398C85.8516 28.1647 86.3422 29.3377 86.3422 30.917C86.3422 32.481 85.6216 33.7613 84.1802 34.758C82.7542 35.7393 80.8836 36.23 78.5682 36.23C76.2529 36.23 74.4359 35.7547 73.1172 34.804C71.7986 33.8533 71.1392 32.6957 71.1392 31.331C71.1392 31.193 71.1852 31.078 71.2772 30.986C71.3846 30.8787 71.5072 30.825 71.6452 30.825H76.0152C76.3372 30.825 76.6899 30.9783 77.0732 31.285C77.4719 31.5917 78.0162 31.745 78.7062 31.745C79.8562 31.745 80.4312 31.5303 80.4312 31.101C80.4312 30.825 80.2242 30.618 79.8102 30.48C79.3962 30.3267 78.6142 30.1733 77.4642 30.02C73.5082 29.4987 71.5302 27.812 71.5302 24.96ZM93.5574 19.9H98.5484C99.1004 19.9 99.4454 20.153 99.5834 20.659L104.712 35.333C104.728 35.379 104.735 35.4557 104.735 35.563C104.735 35.655 104.682 35.7547 104.574 35.862C104.482 35.954 104.367 36 104.229 36H99.9744C99.5144 36 99.2154 35.8083 99.0774 35.425L98.5254 33.907H93.5804L93.0284 35.425C92.8904 35.8083 92.5914 36 92.1314 36H87.8764C87.7384 36 87.6157 35.954 87.5084 35.862C87.4164 35.7547 87.3704 35.655 87.3704 35.563C87.3704 35.4557 87.3781 35.379 87.3934 35.333L92.5224 20.659C92.6604 20.153 93.0054 19.9 93.5574 19.9ZM94.7534 29.422H97.3524L96.0414 25.144L94.7534 29.422ZM112.421 31.285H118.792C118.961 31.285 119.106 31.3463 119.229 31.469C119.352 31.5917 119.413 31.7373 119.413 31.906V35.379C119.413 35.5477 119.352 35.6933 119.229 35.816C119.106 35.9387 118.961 36 118.792 36H107.2C107.031 36 106.886 35.9387 106.763 35.816C106.64 35.6933 106.579 35.5477 106.579 35.379V20.521C106.579 20.3523 106.64 20.2067 106.763 20.084C106.886 19.9613 107.031 19.9 107.2 19.9H111.8C111.969 19.9 112.114 19.9613 112.237 20.084C112.36 20.2067 112.421 20.3523 112.421 20.521V31.285ZM127.013 31.515H134.097C134.266 31.515 134.411 31.5763 134.534 31.699C134.657 31.8217 134.718 31.9673 134.718 32.136V35.379C134.718 35.5477 134.657 35.6933 134.534 35.816C134.411 35.9387 134.266 36 134.097 36H122.114C121.945 36 121.8 35.9387 121.677 35.816C121.554 35.6933 121.493 35.5477 121.493 35.379V20.521C121.493 20.3523 121.554 20.2067 121.677 20.084C121.8 19.9613 121.945 19.9 122.114 19.9H133.913C134.082 19.9 134.227 19.9613 134.35 20.084C134.473 20.2067 134.534 20.3523 134.534 20.521V23.764C134.534 23.9327 134.473 24.0783 134.35 24.201C134.227 24.3237 134.082 24.385 133.913 24.385H127.013V25.834H133.407C133.576 25.834 133.721 25.8953 133.844 26.018C133.967 26.1407 134.028 26.2863 134.028 26.455V29.445C134.028 29.6137 133.967 29.7593 133.844 29.882C133.721 30.0047 133.576 30.066 133.407 30.066H127.013V31.515ZM152.297 35.241C152.343 35.333 152.366 35.4327 152.366 35.54C152.366 35.6473 152.313 35.7547 152.205 35.862C152.113 35.954 151.998 36 151.86 36H147.145C146.67 36 146.34 35.793 146.156 35.379L144.178 30.986H143.235V35.379C143.235 35.5477 143.174 35.6933 143.051 35.816C142.929 35.9387 142.783 36 142.614 36H138.106C137.938 36 137.792 35.9387 137.669 35.816C137.547 35.6933 137.485 35.5477 137.485 35.379V20.521C137.485 20.3523 137.547 20.2067 137.669 20.084C137.792 19.9613 137.938 19.9 138.106 19.9H144.914C147.122 19.9 148.847 20.3983 150.089 21.395C151.331 22.3763 151.952 23.7947 151.952 25.65C151.952 27.49 151.124 28.939 149.468 29.997L152.297 35.241ZM143.235 24.178V26.616H144.914C145.252 26.616 145.512 26.5087 145.696 26.294C145.88 26.064 145.972 25.7803 145.972 25.443C145.972 25.1057 145.88 24.8143 145.696 24.569C145.528 24.3083 145.267 24.178 144.914 24.178H143.235ZM164.262 19.9H168.425C168.593 19.9 168.739 19.9613 168.862 20.084C168.984 20.2067 169.046 20.3523 169.046 20.521V35.379C169.046 35.5477 168.984 35.6933 168.862 35.816C168.739 35.9387 168.593 36 168.425 36H164.791C164.392 36 164.078 35.8237 163.848 35.471L159.961 29.606V35.379C159.961 35.5477 159.899 35.6933 159.777 35.816C159.654 35.9387 159.508 36 159.34 36H155.177C155.008 36 154.862 35.9387 154.74 35.816C154.617 35.6933 154.556 35.5477 154.556 35.379V20.521C154.556 20.3523 154.617 20.2067 154.74 20.084C154.862 19.9613 155.008 19.9 155.177 19.9H158.811C159.24 19.9 159.554 20.0763 159.754 20.429L163.641 26.8V20.521C163.641 20.3523 163.702 20.2067 163.825 20.084C163.947 19.9613 164.093 19.9 164.262 19.9ZM173.663 21.372C175.074 20.2373 176.937 19.67 179.252 19.67C181.567 19.67 183.423 20.245 184.818 21.395C186.229 22.5297 186.934 24.132 186.934 26.202V29.79C186.934 31.8907 186.236 33.493 184.841 34.597C183.461 35.6857 181.598 36.23 179.252 36.23C176.906 36.23 175.035 35.6857 173.64 34.597C172.26 33.493 171.57 31.8907 171.57 29.79V26.202C171.57 24.1167 172.268 22.5067 173.663 21.372ZM178.01 31.285C178.317 31.5917 178.731 31.745 179.252 31.745C179.773 31.745 180.187 31.5917 180.494 31.285C180.801 30.9783 180.954 30.5107 180.954 29.882V26.018C180.954 25.4047 180.801 24.9447 180.494 24.638C180.187 24.316 179.773 24.155 179.252 24.155C178.731 24.155 178.317 24.316 178.01 24.638C177.703 24.9447 177.55 25.4047 177.55 26.018V29.882C177.55 30.5107 177.703 30.9783 178.01 31.285ZM201.651 26.018V29.882C201.651 31.124 202.218 31.745 203.353 31.745C204.227 31.745 204.802 31.331 205.078 30.503C205.154 30.2423 205.246 30.066 205.354 29.974C205.476 29.882 205.668 29.836 205.929 29.836H210.621C210.759 29.836 210.874 29.8897 210.966 29.997C211.073 30.089 211.127 30.204 211.127 30.342C211.127 31.676 210.743 32.7953 209.977 33.7C208.566 35.3867 206.366 36.23 203.376 36.23C201.03 36.23 199.159 35.7163 197.764 34.689C196.368 33.6463 195.671 32.0517 195.671 29.905V25.995C195.671 23.8943 196.384 22.315 197.81 21.257C199.236 20.199 201.091 19.67 203.376 19.67C206.366 19.67 208.566 20.5133 209.977 22.2C210.743 23.1047 211.127 24.224 211.127 25.558C211.127 25.696 211.073 25.8187 210.966 25.926C210.874 26.018 210.759 26.064 210.621 26.064H205.929C205.683 26.064 205.499 26.018 205.377 25.926C205.269 25.834 205.17 25.6577 205.078 25.397C204.786 24.569 204.211 24.155 203.353 24.155C202.218 24.155 201.651 24.776 201.651 26.018ZM228.125 35.241C228.171 35.333 228.194 35.4327 228.194 35.54C228.194 35.6473 228.141 35.7547 228.033 35.862C227.941 35.954 227.826 36 227.688 36H222.973C222.498 36 222.168 35.793 221.984 35.379L220.006 30.986H219.063V35.379C219.063 35.5477 219.002 35.6933 218.879 35.816C218.757 35.9387 218.611 36 218.442 36H213.934C213.766 36 213.62 35.9387 213.497 35.816C213.375 35.6933 213.313 35.5477 213.313 35.379V20.521C213.313 20.3523 213.375 20.2067 213.497 20.084C213.62 19.9613 213.766 19.9 213.934 19.9H220.742C222.95 19.9 224.675 20.3983 225.917 21.395C227.159 22.3763 227.78 23.7947 227.78 25.65C227.78 27.49 226.952 28.939 225.296 29.997L228.125 35.241ZM219.063 24.178V26.616H220.742C221.08 26.616 221.34 26.5087 221.524 26.294C221.708 26.064 221.8 25.7803 221.8 25.443C221.8 25.1057 221.708 24.8143 221.524 24.569C221.356 24.3083 221.095 24.178 220.742 24.178H219.063ZM232.017 21.372C233.427 20.2373 235.29 19.67 237.606 19.67C239.921 19.67 241.776 20.245 243.172 21.395C244.582 22.5297 245.288 24.132 245.288 26.202V29.79C245.288 31.8907 244.59 33.493 243.195 34.597C241.815 35.6857 239.952 36.23 237.606 36.23C235.26 36.23 233.389 35.6857 231.994 34.597C230.614 33.493 229.924 31.8907 229.924 29.79V26.202C229.924 24.1167 230.621 22.5067 232.017 21.372ZM236.364 31.285C236.67 31.5917 237.084 31.745 237.606 31.745C238.127 31.745 238.541 31.5917 238.848 31.285C239.154 30.9783 239.308 30.5107 239.308 29.882V26.018C239.308 25.4047 239.154 24.9447 238.848 24.638C238.541 24.316 238.127 24.155 237.606 24.155C237.084 24.155 236.67 24.316 236.364 24.638C236.057 24.9447 235.904 25.4047 235.904 26.018V29.882C235.904 30.5107 236.057 30.9783 236.364 31.285ZM253.333 26.018V29.882C253.333 31.124 253.901 31.745 255.035 31.745C255.909 31.745 256.484 31.331 256.76 30.503C256.837 30.2423 256.929 30.066 257.036 29.974C257.159 29.882 257.351 29.836 257.611 29.836H262.303C262.441 29.836 262.556 29.8897 262.648 29.997C262.756 30.089 262.809 30.204 262.809 30.342C262.809 31.676 262.426 32.7953 261.659 33.7C260.249 35.3867 258.048 36.23 255.058 36.23C252.712 36.23 250.842 35.7163 249.446 34.689C248.051 33.6463 247.353 32.0517 247.353 29.905V25.995C247.353 23.8943 248.066 22.315 249.492 21.257C250.918 20.199 252.774 19.67 255.058 19.67C258.048 19.67 260.249 20.5133 261.659 22.2C262.426 23.1047 262.809 24.224 262.809 25.558C262.809 25.696 262.756 25.8187 262.648 25.926C262.556 26.018 262.441 26.064 262.303 26.064H257.611C257.366 26.064 257.182 26.018 257.059 25.926C256.952 25.834 256.852 25.6577 256.76 25.397C256.469 24.569 255.894 24.155 255.035 24.155C253.901 24.155 253.333 24.776 253.333 26.018ZM275.093 19.9H279.601C279.77 19.9 279.915 19.9613 280.038 20.084C280.161 20.2067 280.222 20.3523 280.222 20.521V35.379C280.222 35.5477 280.161 35.6933 280.038 35.816C279.915 35.9387 279.77 36 279.601 36H275.093C274.924 36 274.779 35.9387 274.656 35.816C274.533 35.6933 274.472 35.5477 274.472 35.379V30.411H270.746V35.379C270.746 35.5477 270.685 35.6933 270.562 35.816C270.439 35.9387 270.294 36 270.125 36H265.617C265.448 36 265.303 35.9463 265.18 35.839C265.057 35.7163 264.996 35.563 264.996 35.379V20.521C264.996 20.3523 265.057 20.2067 265.18 20.084C265.303 19.9613 265.448 19.9 265.617 19.9H270.125C270.294 19.9 270.439 19.9613 270.562 20.084C270.685 20.2067 270.746 20.3523 270.746 20.521V25.351H274.472V20.521C274.472 20.3523 274.533 20.2067 274.656 20.084C274.779 19.9613 274.924 19.9 275.093 19.9ZM288.732 31.515H295.816C295.984 31.515 296.13 31.5763 296.253 31.699C296.375 31.8217 296.437 31.9673 296.437 32.136V35.379C296.437 35.5477 296.375 35.6933 296.253 35.816C296.13 35.9387 295.984 36 295.816 36H283.833C283.664 36 283.518 35.9387 283.396 35.816C283.273 35.6933 283.212 35.5477 283.212 35.379V20.521C283.212 20.3523 283.273 20.2067 283.396 20.084C283.518 19.9613 283.664 19.9 283.833 19.9H295.632C295.8 19.9 295.946 19.9613 296.069 20.084C296.191 20.2067 296.253 20.3523 296.253 20.521V23.764C296.253 23.9327 296.191 24.0783 296.069 24.201C295.946 24.3237 295.8 24.385 295.632 24.385H288.732V25.834H295.126C295.294 25.834 295.44 25.8953 295.563 26.018C295.685 26.1407 295.747 26.2863 295.747 26.455V29.445C295.747 29.6137 295.685 29.7593 295.563 29.882C295.44 30.0047 295.294 30.066 295.126 30.066H288.732V31.515ZM299.02 19.9H312.498C312.667 19.9 312.812 19.9613 312.935 20.084C313.058 20.2067 313.119 20.3523 313.119 20.521V24.224C313.119 24.3927 313.058 24.5383 312.935 24.661C312.812 24.7837 312.667 24.845 312.498 24.845H308.68V35.379C308.68 35.5477 308.619 35.6933 308.496 35.816C308.373 35.9387 308.228 36 308.059 36H303.459C303.29 36 303.145 35.9387 303.022 35.816C302.899 35.6933 302.838 35.5477 302.838 35.379V24.845H299.02C298.851 24.845 298.706 24.7837 298.583 24.661C298.46 24.5383 298.399 24.3927 298.399 24.224V20.521C298.399 20.3523 298.46 20.2067 298.583 20.084C298.706 19.9613 298.851 19.9 299.02 19.9Z" fill="#EBEBEB"/>
</g>
<defs>
<clipPath id="clip0_21_11">
<rect width="324" height="58" fill="white"/>
</clipPath>
</defs>
</svg>
